<?xml version="1.0" encoding="utf-8"?>
<!-- Generator: Adobe Illustrator 26.0.1, SVG Export Plug-In . SVG Version: 6.00 Build 0)  -->
<svg version="1.1" id="Layer_1" xmlns="http://www.w3.org/2000/svg" xmlns:xlink="http://www.w3.org/1999/xlink" x="0px" y="0px"
	 viewBox="0 0 395 123" style="enable-background:new 0 0 395 123;" xml:space="preserve">
<style type="text/css">
	.st0{fill:#D4145A;}
</style>
<g>
	<g>
		<g>
			<g>
				<path class="st0" d="M108.6,64.1c0-11.3,0-22.5,0-33.8c0-6.9,3.9-10.5,10.5-10.6c13.9-0.1,27.9-0.8,41.7,0.6
					c25.5,2.7,37.8,18.3,37.2,44.9c-0.7,29-14.5,43.1-43.6,43.9c-11.1,0.1-21.9,0.2-32.8,0.2c-9.9,0-13.6-4-13.3-13.5
					C108.7,85.3,108.6,74.7,108.6,64.1C108.7,64.1,108.6,64.1,108.6,64.1z M145.8,86.9c4.5,0.1,10.1,0,15.6-1.4
					c4.8-1.2,8.4-3.7,10.8-8c9-15.5,1-32.3-16.6-35.1c-5.9-0.9-11.9-0.7-17.9-0.7c-5.4,0-7.1,1.3-6.8,6.6c0.4,8.3,0.1,16.6,0.1,24.9
					C131.1,86.9,131.1,86.9,145.8,86.9z"/>
			</g>
		</g>
		<g>
			<path class="st0" d="M231,59.9c0,12.8,0,24.4,0,36c0,7.6-2.4,13.2-11.1,13.2c-8.6,0-11.5-5.8-11.5-13.1
				c-0.2-21.2-0.2-42.4,0.1-63.7c0.1-5,1.4-10,7.2-11.9c5.3-1.7,9.8-0.4,13.6,3.5c6.6,6.6,13.3,13,19.6,19.7
				c3.1,3.3,5.1,4.2,8.6,0.3c5.7-6.4,12.2-12.2,17.9-18.6c4.5-5,9.6-6.6,15.9-4.7c6.5,2,6.7,7.5,6.8,12.9
				c0.1,20.9-0.1,41.8,0.1,62.7c0.1,8.2-3.5,12.8-11.5,12.9c-8.6,0.1-11-5.6-10.9-13.3c0.2-11.6,0-23.1,0-35.5
				c-7.9,9-11.7,15.4-22.5,15.2C242.6,75.3,238.4,68.2,231,59.9z"/>
		</g>
		<g>
			<g>
				<path class="st0" d="M53.2,110.1c-9.9,0-19.9,0.2-29.8-0.1c-13.7-0.3-17.7-7.6-12-19.1c10-20.2,20.3-40,30.6-59.9
					c2.7-5.2,5.6-9.9,12.1-10.3c6.4-0.4,9.4,4.6,11.7,9.2C76.1,50,86.3,70,95.7,90.4c6.1,13.1,1.6,19.6-12.7,19.7
					C73.1,110.2,63.2,110.1,53.2,110.1z M54.6,55.9C49,67.6,44.4,76.3,39.5,86.6c10.6,0.2,19.4,0.2,29.8,0.1
					C64.5,76.5,60.1,67.7,54.6,55.9z"/>
			</g>
		</g>
		<g>
			<path class="st0" d="M361.1,86.9c4.6,0,9.6,0.1,14.2,0.1c7.3,0,10.9,3.7,10.9,11c0,7.2-3.9,11.1-11,11.2
				c-10.5,0.2-21.1,0.2-31.5,0.2c-7.3-0.1-14.8,0.1-22-0.1c-9-0.2-13.7-4.3-13.7-13.1c-0.1-21.2-0.2-42.3,0-63.5
				c0.1-7.5,3.2-13.1,11.7-12.9c8.5,0.2,10.9,5.7,10.9,13.4c-0.2,15.5,0.2,31.1-0.2,46.6c-0.1,5.6,1.6,7.1,7.3,7.2
				C345.6,87.2,353.1,87.1,361.1,86.9z"/>
		</g>
	</g>
</g>
</svg>
